<?xml version="1.0" standalone="no"?>
<!DOCTYPE svg PUBLIC "-//W3C//DTD SVG 20010904//EN"
 "http://www.w3.org/TR/2001/REC-SVG-20010904/DTD/svg10.dtd">
<svg version="1.0" xmlns="http://www.w3.org/2000/svg"
 width="551.000000pt" height="551.000000pt" viewBox="0 0 551.000000 551.000000"
 preserveAspectRatio="xMidYMid meet">
<metadata>
Created by potrace 1.14, written by Peter Selinger 2001-2017
</metadata>
<g transform="translate(0.000000,551.000000) scale(0.100000,-0.100000)"
fill="#000000" stroke="none">
<path d="M3244 4790 c-102 -23 -153 -40 -241 -81 -201 -96 -377 -270 -484
-479 -30 -59 -76 -182 -86 -230 -64 -309 -15 -605 142 -844 10 -14 16 -27 14
-27 -2 -1 -71 -3 -154 -4 -165 -3 -263 -10 -411 -30 -41 -6 -42 -6 -74 47 -18
29 -36 55 -39 58 -4 3 -22 26 -40 52 -50 70 -215 225 -319 298 -176 125 -385
219 -454 206 -42 -8 -51 -16 -121 -100 -177 -210 -306 -459 -376 -726 -30
-115 -34 -138 -46 -240 -4 -30 -9 -66 -11 -80 -17 -105 -11 -468 11 -578 2
-11 7 -42 10 -69 13 -88 36 -185 77 -313 44 -141 147 -360 223 -472 40 -59 65
-77 215 -151 252 -123 564 -229 800 -271 19 -3 46 -8 60 -11 41 -8 141 -23
195 -29 28 -3 93 -11 145 -16 121 -14 450 -14 560 -1 47 6 112 13 145 16 89 8
198 26 303 50 34 8 75 17 91 20 52 9 293 84 391 121 223 86 237 97 355 274
212 321 317 663 318 1045 0 155 -2 186 -28 339 -24 140 -87 339 -142 449 l-24
48 28 43 28 43 105 0 c121 -1 199 17 305 68 211 102 361 314 401 568 19 121
-7 296 -46 317 -13 7 -132 10 -331 10 l-312 -1 -39 83 c-141 299 -386 504
-705 589 -110 30 -327 34 -439 9z"/>
</g>
</svg>
